<svg width="518" height="584" viewBox="0 0 518 584" fill="none" xmlns="http://www.w3.org/2000/svg">
<g id="undraw_books_l-33-t 1" clip-path="url(#clip0_0_1)">
<g id="circle--book--svg">
<path id="Vector" opacity="0.3" d="M255.238 526C379.634 526 480.477 423.697 480.477 297.5C480.477 171.303 379.634 69 255.238 69C130.843 69 30 171.303 30 297.5C30 423.697 130.843 526 255.238 526Z" fill="#B7E466" fill-opacity="0.2"/>
</g>
<path id="Vector_2" d="M180.645 33L30.8678 217.459L252.537 483L400.317 306.649L180.645 33Z" fill="#B7E466"/>
<g id="pasta--book-svg-2">
<path id="Vector_3" opacity="0.1" d="M180.645 33L30.8678 217.459L252.537 483L400.317 306.649L180.645 33Z" fill="black"/>
</g>
<path id="Vector_4" d="M36.6555 219.933C39.9792 213.86 44.1006 208.273 48.9066 203.327L186.913 61.3016C186.913 61.3016 234.996 53.1667 245.013 77.5714L68.7105 224L36.6555 219.933Z" fill="#DDDDDD"/>
<g id="pasta--book-svg">
<path id="Vector_5" d="M29.9031 216.166L234.07 532.416C234.07 532.416 254.086 546.606 274.103 538.497L483.274 395.577L261.092 55L60.9285 213.125L29.9031 216.166Z" fill="#B7E466"/>
</g>
<path id="Vector_6" d="M235.864 104.658L107.804 197.925L109.696 200.593L237.756 107.327L235.864 104.658Z" fill="#3F3D56"/>
<path id="Vector_7" d="M106.106 232.833L103.402 234.646L271.466 492.183L274.171 490.369L106.106 232.833Z" fill="#3F3D56"/>
<path id="Vector_8" d="M427.901 396.651L291.88 498.083L293.803 500.731L429.824 399.299L427.901 396.651Z" fill="#3F3D56"/>
<path id="Vector_9" d="M260.144 109.103L257.484 110.98L431.55 364.46L434.211 362.583L260.144 109.103Z" fill="#3F3D56"/>
<path id="Vector_10" d="M206.377 59.3628L48.0564 206.631L49.4085 208.124L207.729 60.856L206.377 59.3628Z" fill="#3F3D56"/>
<path id="Vector_11" d="M218.189 59.0453L53.5515 206.356L54.9833 208L219.621 60.6891L218.189 59.0453Z" fill="#3F3D56"/>
<path id="Vector_12" d="M229.916 63.5759L58.1475 208.69L59.4293 210.248L231.198 65.1344L229.916 63.5759Z" fill="#3F3D56"/>
<path id="Pedro F. Cantor" d="M199.584 355.128L187.658 337.843L189.587 336.414L201.513 353.7L199.584 355.128ZM197.378 345.12L196.049 343.194L198.532 341.355C199.079 340.95 199.488 340.523 199.76 340.072C200.021 339.606 200.108 339.081 200.022 338.498C199.935 337.915 199.637 337.254 199.125 336.513C198.637 335.805 198.146 335.323 197.654 335.066C197.177 334.797 196.683 334.715 196.172 334.82C195.662 334.924 195.125 335.185 194.563 335.602L192.08 337.441L190.768 335.54L193.588 333.45C194.5 332.8 195.382 332.407 196.236 332.272C197.09 332.137 197.924 332.291 198.739 332.732C199.553 333.173 200.358 333.97 201.153 335.123C201.971 336.308 202.442 337.377 202.565 338.33C202.693 339.255 202.546 340.098 202.124 340.859C201.702 341.619 201.06 342.343 200.199 343.031L197.378 345.12ZM215.239 343.532C214.564 344.032 213.885 344.349 213.2 344.483C212.52 344.588 211.873 344.583 211.258 344.466C210.648 344.321 210.112 344.108 209.652 343.827C209.207 343.535 208.877 343.232 208.661 342.919L204.47 336.845C204.254 336.532 204.09 336.119 203.978 335.605C203.871 335.062 203.856 334.477 203.932 333.848C204.024 333.207 204.234 332.579 204.562 331.963C204.895 331.319 205.391 330.753 206.049 330.265L207.31 332.092C206.876 332.413 206.57 332.814 206.392 333.295C206.218 333.747 206.142 334.201 206.165 334.656C206.193 335.084 206.292 335.421 206.462 335.668L207.672 337.421L213.313 333.242L212.12 331.514C211.836 331.102 211.48 330.832 211.05 330.702C210.621 330.572 210.173 330.556 209.705 330.653C209.243 330.722 208.819 330.9 208.433 331.185L207.207 329.408C207.849 328.931 208.584 328.623 209.411 328.484C210.253 328.332 211.071 328.373 211.863 328.607C212.645 328.824 213.268 329.271 213.734 329.946L216.358 333.748L208.933 339.248L210.517 341.545C210.676 341.775 210.946 341.973 211.328 342.138C211.714 342.275 212.149 342.326 212.634 342.29C213.119 342.254 213.579 342.075 214.013 341.754L215.239 343.532ZM216.373 342.692L215.129 340.89C215.611 340.533 215.953 340.13 216.154 339.683C216.36 339.207 216.471 338.752 216.486 338.317C216.491 337.866 216.429 337.477 216.3 337.149L218.341 336.57C218.576 337.192 218.673 337.879 218.633 338.63C218.593 339.381 218.394 340.113 218.036 340.826C217.666 341.523 217.112 342.145 216.373 342.692ZM226.011 335.552C225.353 336.041 224.691 336.331 224.027 336.425C223.363 336.519 222.74 336.496 222.158 336.355C221.563 336.198 221.044 335.973 220.599 335.681C220.155 335.388 219.83 335.094 219.626 334.797L215.452 328.748C215.191 328.369 215.006 327.909 214.899 327.366C214.808 326.812 214.806 326.228 214.894 325.616C214.998 324.992 215.201 324.406 215.503 323.859C215.81 323.283 216.245 322.787 216.807 322.371L218.856 320.853L220.117 322.68L218.092 324.18C217.739 324.442 217.477 324.785 217.308 325.208C217.128 325.616 217.043 326.039 217.055 326.478C217.071 326.889 217.17 327.226 217.352 327.489L221.424 333.391C221.628 333.687 221.924 333.904 222.309 334.041C222.711 334.166 223.128 334.206 223.558 334.161C223.988 334.116 224.372 333.968 224.71 333.718L226.71 332.236L227.988 334.088L226.011 335.552ZM229.145 333.231L217.117 315.798L219.046 314.369L231.05 331.82L229.145 333.231ZM233.06 330.331L223.895 317.046L225.775 315.653L227.087 317.555C227.038 317.168 227.062 316.727 227.158 316.233C227.259 315.711 227.437 315.194 227.691 314.682C227.961 314.158 228.337 313.718 228.819 313.361C228.916 313.29 229.004 313.224 229.085 313.165C229.165 313.105 229.245 313.046 229.326 312.986L230.187 315.184C229.656 315.577 229.286 316.149 229.077 316.902C228.872 317.626 228.821 318.397 228.925 319.216C229.017 320.018 229.279 320.732 229.71 321.358L234.941 328.938L233.06 330.331ZM243.93 322.317C243.303 322.781 242.653 323.089 241.98 323.239C241.323 323.378 240.687 323.389 240.072 323.272C239.446 323.139 238.877 322.913 238.366 322.595C237.855 322.277 237.441 321.887 237.123 321.427L233.392 316.019C233.074 315.558 232.844 315.031 232.703 314.44C232.55 313.831 232.52 313.207 232.612 312.566C232.693 311.909 232.912 311.275 233.267 310.664C233.611 310.036 234.104 309.484 234.747 309.008L236.025 310.86C235.543 311.217 235.218 311.644 235.051 312.141C234.888 312.609 234.844 313.09 234.917 313.583C234.99 314.076 235.157 314.512 235.418 314.891L238.809 319.805C239.036 320.134 239.371 320.408 239.814 320.627C240.256 320.847 240.732 320.955 241.239 320.952C241.747 320.949 242.218 320.787 242.652 320.465L243.93 322.317ZM245.015 321.513L243.737 319.662C244.187 319.328 244.493 318.927 244.656 318.459C244.823 317.962 244.875 317.475 244.814 316.998C244.741 316.505 244.59 316.094 244.363 315.765L240.939 310.802C240.689 310.439 240.351 310.143 239.924 309.911C239.497 309.68 239.038 309.56 238.546 309.551C238.055 309.543 237.576 309.711 237.11 310.056L235.832 308.204C236.491 307.716 237.146 307.417 237.799 307.307C238.456 307.168 239.098 307.165 239.724 307.299C240.339 307.415 240.891 307.653 241.381 308.011C241.876 308.341 242.283 308.737 242.601 309.198L246.332 314.605C246.65 315.066 246.871 315.599 246.997 316.202C247.138 316.794 247.168 317.419 247.087 318.076C246.995 318.716 246.779 319.336 246.44 319.936C246.116 320.523 245.642 321.049 245.015 321.513ZM256.514 312.921L244.605 295.661L253.38 289.161L254.726 291.112L247.88 296.183L251.849 301.936L256.43 298.544L257.776 300.494L253.195 303.887L258.443 311.492L256.514 312.921ZM268.35 304.34C267.997 304.602 267.606 304.705 267.179 304.648C266.756 304.564 266.42 304.34 266.17 303.978C265.92 303.616 265.824 303.214 265.884 302.772C265.959 302.318 266.174 301.96 266.527 301.698C266.897 301.424 267.293 301.33 267.716 301.415C268.155 301.487 268.499 301.705 268.749 302.067C268.999 302.429 269.086 302.837 269.011 303.291C268.94 303.717 268.72 304.066 268.35 304.34ZM281.989 294.275C281.105 294.93 280.244 295.319 279.406 295.442C278.568 295.565 277.786 295.523 277.059 295.314C276.338 295.078 275.712 294.77 275.184 294.391C274.643 293.995 274.248 293.616 273.998 293.254L268.257 284.932C267.996 284.553 267.777 284.044 267.602 283.402C267.415 282.745 267.336 282.032 267.365 281.264C267.399 280.468 267.608 279.679 267.991 278.898C268.363 278.1 268.991 277.373 269.875 276.719L271.238 278.694C270.708 279.087 270.332 279.527 270.11 280.015C269.892 280.474 269.766 280.942 269.729 281.416C269.697 281.863 269.735 282.27 269.843 282.638C269.951 283.006 270.073 283.288 270.21 283.486L275.951 291.807C276.087 292.005 276.306 292.216 276.607 292.441C276.924 292.654 277.297 292.825 277.726 292.955C278.144 293.068 278.606 293.086 279.112 293.01C279.618 292.934 280.128 292.705 280.643 292.324L281.989 294.275ZM283.146 293.418L281.8 291.467C282.066 291.22 282.329 290.914 282.587 290.549C282.849 290.155 283.034 289.719 283.142 289.242C283.238 288.748 283.203 288.239 283.036 287.716C282.994 287.548 282.929 287.385 282.843 287.225C282.773 287.053 282.692 286.901 282.602 286.769C282.561 286.675 282.518 286.595 282.472 286.529C282.432 286.435 282.4 286.371 282.377 286.338L284.492 285.443C285.094 286.316 285.422 287.267 285.477 288.296C285.52 289.309 285.338 290.277 284.931 291.2C284.512 292.107 283.917 292.847 283.146 293.418ZM277.286 279.065C277.241 278.999 277.195 278.933 277.15 278.867C277.104 278.801 277.059 278.736 277.013 278.67C276.907 278.55 276.805 278.438 276.71 278.335C276.603 278.215 276.48 278.107 276.341 278.011C275.851 277.653 275.386 277.437 274.947 277.365C274.513 277.263 274.12 277.256 273.767 277.343C273.419 277.402 273.129 277.492 272.897 277.614C272.654 277.72 272.487 277.794 272.395 277.837L271.032 275.861C271.611 275.433 272.256 275.154 272.968 275.024C273.697 274.883 274.431 274.874 275.171 274.997C275.912 275.12 276.596 275.372 277.223 275.753C277.867 276.122 278.393 276.603 278.802 277.196L277.286 279.065ZM293.044 285.862C292.24 286.458 291.447 286.821 290.664 286.954C289.87 287.069 289.147 287.008 288.496 286.768C287.862 286.517 287.38 286.153 287.05 285.675L286.232 284.49C286.062 284.243 285.91 283.97 285.777 283.671C285.632 283.355 285.551 282.992 285.535 282.581C285.518 282.171 285.627 281.73 285.86 281.258C286.027 280.936 286.297 280.537 286.673 280.06C287.052 279.554 287.47 279.033 287.926 278.497C288.37 277.944 288.784 277.401 289.169 276.867C289.554 276.334 289.85 275.865 290.058 275.463C290.27 275.032 290.308 274.717 290.172 274.52L289.848 274.051C289.53 273.59 289.151 273.286 288.71 273.14C288.274 272.965 287.839 272.915 287.404 272.988C286.973 273.034 286.581 273.187 286.228 273.449L285.035 271.72C285.935 271.054 286.816 270.712 287.679 270.695C288.53 270.661 289.302 270.848 289.996 271.255C290.694 271.633 291.236 272.102 291.622 272.662L296.325 279.477C296.393 279.576 296.538 279.717 296.762 279.9C296.99 280.054 297.248 280.024 297.538 279.81L298.781 281.612C298.299 281.97 297.857 282.173 297.454 282.223C297.051 282.272 296.66 282.251 296.281 282.159C296.18 282.681 295.939 283.195 295.559 283.701C295.168 284.189 294.723 284.618 294.225 284.987L292.999 283.209C293.368 282.936 293.666 282.628 293.892 282.287C294.122 281.917 294.232 281.512 294.22 281.073C294.225 280.622 294.051 280.141 293.699 279.631L291.688 276.717C291.476 277.148 291.164 277.629 290.751 278.158C290.355 278.675 289.93 279.202 289.474 279.738C289.007 280.258 288.602 280.745 288.259 281.198C287.905 281.634 287.704 281.995 287.657 282.278C287.566 282.569 287.652 282.904 287.913 283.283L288.407 283.999C288.707 284.398 289.044 284.658 289.419 284.779C289.782 284.883 290.164 284.874 290.565 284.751C290.982 284.616 291.399 284.394 291.817 284.084L293.044 285.862ZM284.572 278.071L282.466 278.661C282.023 278.019 281.816 277.314 281.844 276.547C281.862 275.762 282.055 275.022 282.425 274.326C282.799 273.601 283.291 273.012 283.902 272.56L285.129 274.338C284.759 274.611 284.476 274.958 284.28 275.377C284.088 275.768 284.009 276.199 284.043 276.671C284.078 277.143 284.254 277.61 284.572 278.071ZM294.089 271.021C293.771 270.56 293.542 270.034 293.4 269.442C293.264 268.822 293.236 268.183 293.317 267.526C293.398 266.869 293.616 266.235 293.971 265.624C294.327 265.012 294.834 264.462 295.493 263.974L296.787 265.851C296.386 266.149 296.082 266.535 295.876 267.011C295.675 267.459 295.581 267.939 295.594 268.451C295.613 268.935 295.764 269.383 296.048 269.794L302.385 278.98L300.529 280.355L294.089 271.021ZM301.713 265.598C301.497 265.285 301.181 265.022 300.766 264.807C300.351 264.592 299.881 264.492 299.357 264.507C298.849 264.51 298.354 264.69 297.872 265.047L296.577 263.171C297.22 262.695 297.884 262.389 298.569 262.255C299.242 262.105 299.892 262.096 300.518 262.23C301.144 262.363 301.71 262.603 302.216 262.949C302.727 263.267 303.136 263.648 303.443 264.093L309.883 273.427L308.051 274.784L301.713 265.598ZM316.701 268.376C315.661 269.122 314.741 269.53 313.94 269.601C313.143 269.643 312.411 269.427 311.743 268.952C311.075 268.476 310.44 267.802 309.838 266.93L305.068 260.016L303.501 261.176L302.223 259.324L303.79 258.164L300.792 253.818L302.672 252.425L305.671 256.771L307.213 255.628L308.491 257.48L306.948 258.623L311.889 265.784C312.321 266.409 312.815 266.827 313.372 267.036C313.934 267.217 314.625 267.004 315.445 266.396L315.734 266.182L317.497 267.787L316.701 268.376ZM322.63 264.021C322.004 264.486 321.354 264.793 320.68 264.944C320.023 265.082 319.387 265.093 318.772 264.976C318.146 264.843 317.578 264.618 317.067 264.299C316.556 263.981 316.141 263.592 315.823 263.131L312.092 257.723C311.774 257.262 311.545 256.736 311.403 256.144C311.251 255.536 311.221 254.911 311.313 254.271C311.394 253.614 311.612 252.979 311.967 252.368C312.311 251.74 312.805 251.188 313.447 250.712L314.725 252.564C314.243 252.921 313.918 253.348 313.751 253.845C313.589 254.314 313.544 254.794 313.617 255.288C313.69 255.781 313.858 256.217 314.119 256.595L317.509 261.509C317.736 261.838 318.071 262.113 318.514 262.332C318.957 262.551 319.432 262.659 319.94 262.656C320.448 262.653 320.919 262.491 321.353 262.169L322.63 264.021ZM323.715 263.218L322.437 261.366C322.887 261.033 323.194 260.632 323.356 260.163C323.523 259.666 323.576 259.179 323.514 258.703C323.441 258.21 323.291 257.798 323.064 257.469L319.639 252.506C319.389 252.144 319.051 251.847 318.624 251.616C318.198 251.385 317.739 251.265 317.247 251.256C316.755 251.247 316.276 251.415 315.81 251.76L314.532 249.908C315.191 249.42 315.847 249.121 316.499 249.011C317.157 248.872 317.798 248.87 318.424 249.003C319.039 249.12 319.592 249.357 320.082 249.716C320.577 250.046 320.983 250.441 321.301 250.902L325.032 256.31C325.35 256.771 325.572 257.303 325.697 257.907C325.838 258.499 325.868 259.123 325.787 259.78C325.695 260.421 325.479 261.041 325.14 261.64C324.817 262.228 324.342 262.754 323.715 263.218ZM329.559 258.852L320.393 245.567L322.273 244.175L323.585 246.076C323.536 245.689 323.56 245.248 323.656 244.754C323.757 244.232 323.935 243.715 324.189 243.203C324.459 242.68 324.835 242.239 325.318 241.882C325.414 241.811 325.502 241.745 325.583 241.686C325.663 241.626 325.743 241.567 325.824 241.507L326.685 243.705C326.154 244.098 325.784 244.671 325.575 245.423C325.37 246.147 325.319 246.918 325.423 247.737C325.515 248.539 325.777 249.253 326.209 249.879L331.439 257.459L329.559 258.852Z" fill="#3F3D56" fill-opacity="0.8"/>
</g>
<defs>
<clipPath id="clip0_0_1">
<rect width="518" height="584" fill="white"/>
</clipPath>
</defs>
</svg>
