<svg width="578" height="693" viewBox="0 0 578 693" fill="none" xmlns="http://www.w3.org/2000/svg">
<g id="teacher 1">
<path id="Vector" opacity="0.1" d="M281.743 36H212.257C208.249 36 205 39.5824 205 44.0015V55.9985C205 60.4176 208.249 64 212.257 64H281.743C285.751 64 289 60.4176 289 55.9985V44.0015C289 39.5824 285.751 36 281.743 36Z" fill="#C9DA69"/>
<path id="Vector_2" opacity="0.1" d="M405.075 37H357.925C355.205 37 353 40.3265 353 44.43V55.57C353 59.6735 355.205 63 357.925 63H405.075C407.795 63 410 59.6735 410 55.57V44.43C410 40.3265 407.795 37 405.075 37Z" fill="#C9DA69"/>
<path id="Vector_3" opacity="0.1" d="M424.015 598H337.985C333.023 598 329 601.582 329 606.002V617.998C329 622.418 333.023 626 337.985 626H424.015C428.977 626 433 622.418 433 617.998V606.002C433 601.582 428.977 598 424.015 598Z" fill="#C9DA69"/>
<path id="Vector_4" opacity="0.1" d="M420.065 538H324.935C319.448 538 315 541.838 315 546.573V559.427C315 564.162 319.448 568 324.935 568H420.065C425.552 568 430 564.162 430 559.427V546.573C430 541.838 425.552 538 420.065 538Z" fill="#C9DA69"/>
<path id="Vector_5" opacity="0.1" d="M420.065 477H324.935C319.448 477 315 481.094 315 486.145V499.855C315 504.906 319.448 509 324.935 509H420.065C425.552 509 430 504.906 430 499.855V486.145C430 481.094 425.552 477 420.065 477Z" fill="#C9DA69"/>
<path id="Vector_6" opacity="0.1" d="M420.065 434H324.935C319.448 434 315 437.71 315 442.287V454.713C315 459.29 319.448 463 324.935 463H420.065C425.552 463 430 459.29 430 454.713V442.287C430 437.71 425.552 434 420.065 434Z" fill="#C9DA69"/>
<path id="Vector_7" d="M147.482 149.663C202.428 170.599 234 213.919 234 213.919C234 213.919 176.477 223.266 121.518 202.341C66.5588 181.417 35 138.085 35 138.085C35 138.085 92.5234 128.727 147.482 149.663Z" fill="#C9DA69"/>
<path id="Vector_8" d="M319.243 71.9847C335.793 47.608 363.976 36 363.976 36C363.976 36 365.27 63.7895 348.772 88.0966C332.274 112.404 304.026 124 304.026 124C304.026 124 302.681 96.2221 319.243 71.9847Z" fill="#C9DA69"/>
<path id="Vector_9" d="M192.986 95.821C205.072 133.92 238.385 159 238.385 159C238.385 159 252.108 122.289 240.023 84.179C227.937 46.0686 194.611 21 194.611 21C194.611 21 180.887 57.7106 192.986 95.821Z" fill="#46455B"/>
<g id="Michel">
<path id="Vector_10" d="M316.659 646.399C313.269 648.208 309.395 649.228 305.898 650.82C302.401 652.412 298.998 654.806 298.002 658.105C297.631 659.129 297.693 660.232 298.177 661.221C299.047 662.416 300.379 663.315 301.943 663.764C309.048 666.451 316.722 667.875 324.495 667.95C332.268 668.025 339.977 666.749 347.152 664.199C349.676 663.166 352.283 662.285 354.953 661.565C358.242 660.993 361.59 660.702 364.947 660.694C368.476 660.518 371.986 660.136 375.452 659.549C377.195 659.383 378.846 658.799 380.214 657.865C381.461 656.64 382.212 655.106 382.352 653.489C383.944 644.565 381.544 635.457 375.627 627.968C374.882 626.918 373.882 626.016 372.695 625.322C371.247 624.685 369.655 624.321 368.027 624.257C361.302 623.558 354.254 622.275 347.461 622.138C342.592 622.046 340.144 624.016 336.7 626.868C329.585 632.928 325.429 641.737 316.659 646.399Z" fill="#323444"/>
<path id="Vector_11" d="M415.778 645.551C415.778 651.164 416.571 657.109 420.566 661.587C422.393 663.524 424.606 665.172 427.103 666.456C435.55 671.038 446.741 672.721 455.646 668.838C457.084 668.288 458.314 667.408 459.197 666.295C460.542 664.302 459.829 661.816 459.076 659.617L446.19 621.588C437.864 622.676 425.624 623.443 418.226 627.04C412.859 629.64 415.778 640.534 415.778 645.551Z" fill="#323444"/>
<path id="Vector_12" d="M309.099 411.383C308.319 413.479 305.494 414.452 303.947 416.216C302.132 418.29 302.32 421.165 302.979 423.685C303.793 427.401 305.843 430.84 308.884 433.593C310.427 434.957 312.332 435.987 314.437 436.597C316.543 437.206 318.79 437.378 320.99 437.098C325.321 436.4 329.06 433.135 329.208 429.389C329.13 427.686 328.702 426.007 327.944 424.429L318.77 401.841C318.733 401.681 318.656 401.53 318.545 401.398C318.433 401.265 318.29 401.155 318.125 401.073C317.778 401.008 317.416 401.061 317.116 401.222C314.95 402.093 310.606 403.009 309.341 404.922C308.077 406.835 310.014 409.309 309.099 411.383Z" fill="#FBB3B2"/>
<path id="Vector_13" d="M304.808 410.249C308.158 409.802 311.09 408.129 314.224 407.03C317.358 405.93 321.286 405.506 323.922 407.339C324.675 407.866 325.402 408.588 326.384 408.576C325.048 402.975 323.028 397.508 320.358 392.265C320.264 392.013 320.08 391.793 319.833 391.635C319.466 391.508 319.056 391.508 318.69 391.635L309.637 393.651C306.288 394.395 305.898 394.166 306.154 396.973C306.221 398.221 306.974 410.249 304.808 410.249Z" fill="#323444"/>
<path id="Vector_14" d="M303.813 247.134C302.468 248.898 302.468 251.097 302.468 253.17C302.468 263.308 302.589 273.502 304.351 283.537C304.768 285.942 305.293 288.348 305.562 290.776C305.867 294.156 305.93 297.549 305.75 300.936L304.405 345.037C304.244 350.432 303.921 356.228 300.007 360.466C298.82 361.887 298.262 363.62 298.433 365.358C299.455 376.423 301.607 387.396 303.746 398.336C307.189 397.013 310.952 396.403 314.725 396.556C318.498 396.71 322.175 397.622 325.455 399.218C332.242 381.046 335.996 362.151 336.606 343.09C336.916 333.708 336.445 324.27 338.14 315.003C340.978 299.401 339.821 283.399 337.736 267.706C337.077 262.735 335.678 257.615 331.939 253.766C328.399 250.398 323.685 248.086 318.488 247.168C313.511 246.057 309.059 247.202 303.813 247.134Z" fill="#5B5583"/>
<path id="Vector_15" opacity="0.1" d="M303.813 247.134C302.468 248.898 302.468 251.097 302.468 253.17C302.468 263.308 302.589 273.502 304.351 283.537C304.768 285.942 305.293 288.348 305.562 290.776C305.867 294.156 305.93 297.549 305.75 300.936L304.405 345.037C304.244 350.432 303.921 356.228 300.007 360.466C298.82 361.887 298.262 363.62 298.433 365.358C299.455 376.423 301.607 387.396 303.746 398.336C307.189 397.013 310.952 396.403 314.725 396.556C318.498 396.71 322.175 397.622 325.455 399.218C332.242 381.046 335.996 362.151 336.606 343.09C336.916 333.708 336.445 324.27 338.14 315.003C340.978 299.401 339.821 283.399 337.736 267.706C337.077 262.735 335.678 257.615 331.939 253.766C328.399 250.398 323.685 248.086 318.488 247.168C313.511 246.057 309.059 247.202 303.813 247.134Z" fill="black"/>
<path id="Vector_16" d="M320.25 375.025C311.229 414.394 316.154 455.158 334.4 492.138C335.977 494.876 337.082 497.792 337.682 500.798C338.422 506.411 335.382 511.806 333.647 517.235C329.612 529.583 331.939 542.733 334.521 555.368C335.597 560.637 336.705 565.903 337.844 571.164C338.96 576.296 340.036 581.874 337.238 586.525C339.646 595.07 341.072 603.535 343.48 612.08C343.735 612.756 343.813 613.472 343.708 614.176C343.223 615.295 342.368 616.269 341.247 616.983C339.452 618.532 338.162 620.453 337.504 622.556C336.846 624.659 336.843 626.871 337.494 628.976C343.641 625.219 352.209 626.536 359.231 628.976C366.252 631.416 373.166 634.703 380.752 634.703C379.649 627.12 378.586 619.159 381.868 612.046C383.778 607.922 387.141 604.028 387.047 599.617C386.953 595.666 384.115 592.138 383.429 588.231C383.174 585.801 383.282 583.353 383.751 580.946C385.554 566.926 383.509 552.768 381.465 538.77C381.234 536.01 380.47 533.301 379.205 530.752C378.25 529.102 376.824 527.522 376.851 525.677C376.851 523.535 378.882 521.794 379.635 519.755C380.98 515.998 378.505 510.889 382.231 508.564C392.05 502.424 388.284 487.762 388.069 477.396C387.899 468.454 387.45 459.519 386.724 450.592C392.906 465.395 395.434 481.126 394.149 496.8C393.718 501.932 392.925 507.327 395.279 512.069C397.081 515.712 400.659 518.713 401.627 522.573C402.233 524.956 401.802 527.419 401.937 529.847C402.071 532.275 403.04 534.921 405.501 536.147C405.69 547.189 406.846 558.999 407.048 570.041C406.917 575.686 407.458 581.328 408.662 586.88C409.266 588.646 409.6 590.471 409.658 592.309C409.354 594.615 408.637 596.867 407.532 598.987C405.188 604.899 404.575 611.208 405.747 617.367C406.92 623.526 409.841 629.347 414.258 634.325C417.432 629.526 424.05 626.983 430.506 626.582C436.963 626.181 443.338 627.567 449.593 628.964C448.637 622.272 450.2 615.493 454.059 609.606C455.093 608.279 455.887 606.827 456.413 605.299C457.139 602.39 455.444 599.491 454.529 596.616C453.036 592.034 453.561 587.097 453.911 582.309C455.084 566.274 454.25 550.177 451.422 534.291C450.986 531.162 450.124 528.087 448.853 525.128C448.369 524.074 447.777 523.066 447.374 522C446.739 520.09 446.378 518.12 446.298 516.136L444.751 497.808C443.661 484.967 448.611 472.287 452.068 459.756C453.615 454.143 455.296 448.541 456.332 442.837C457.744 435.071 457.973 427.133 460.044 419.47C461.9 412.597 465.25 405.896 465.949 398.851C467.025 387.935 461.699 377.385 456.534 367.374C454.382 363.25 446.244 363.662 441.011 362.929C403.901 357.74 364.813 357.706 329.814 369.401C326.194 370.678 322.934 372.595 320.25 375.025V375.025Z" fill="#4C465A"/>
<path id="Vector_17" d="M347.004 171.716L351.12 185.347C352.239 188.473 352.858 191.713 352.962 194.98C353.005 196.172 352.695 197.354 352.061 198.417C351.384 199.29 350.516 200.044 349.506 200.639C346.694 202.46 344.744 206.71 341.529 207.97C343.184 210.421 345.47 208.829 348.456 210.055C353.716 212.231 358.531 215.358 364.234 216.435C369.615 217.443 375.264 216.492 380.604 215.29C388.177 213.537 395.709 211.12 401.802 206.893C407.896 202.667 411.366 198.932 411.339 192.254C404.614 192.93 398.628 187.145 395.655 181.945C394.625 179.968 393.866 177.896 393.396 175.771L389.791 162.266C385.863 162.999 382.662 165.393 378.909 166.642C375.156 167.89 370.718 168.005 366.548 168.165C359.146 168.452 351.785 169.264 344.542 170.593C343.547 170.765 342.296 171.304 342.538 172.128" fill="#FBB3B2"/>
<path id="Vector_18" opacity="0.1" d="M347.004 171.716L351.12 185.347C352.239 188.473 352.858 191.713 352.962 194.98C353.005 196.172 352.695 197.354 352.061 198.417C351.384 199.29 350.516 200.044 349.506 200.639C346.694 202.46 344.744 206.71 341.529 207.97C343.184 210.421 345.47 208.829 348.456 210.055C353.716 212.231 358.531 215.358 364.234 216.435C369.615 217.443 375.264 216.492 380.604 215.29C388.177 213.537 395.709 211.12 401.802 206.893C407.896 202.667 411.366 198.932 411.339 192.254C404.614 192.93 398.628 187.145 395.655 181.945C394.625 179.968 393.866 177.896 393.396 175.771L389.791 162.266C385.863 162.999 382.662 165.393 378.909 166.642C375.156 167.89 370.718 168.005 366.548 168.165C359.146 168.452 351.785 169.264 344.542 170.593C343.547 170.765 342.296 171.304 342.538 172.128" fill="black"/>
<path id="Vector_19" d="M364.678 179.23C384.349 179.23 400.296 165.65 400.296 148.898C400.296 132.146 384.349 118.566 364.678 118.566C345.007 118.566 329.06 132.146 329.06 148.898C329.06 165.65 345.007 179.23 364.678 179.23Z" fill="#FBB3B2"/>
<path id="Vector_20" d="M374.484 198.898C376.388 195.395 379.138 192.272 382.554 189.734C387.571 185.988 394.431 182.953 395.615 177.363L406.483 188.142C407.074 188.642 407.532 189.243 407.828 189.906C407.965 190.528 407.945 191.167 407.769 191.781C407.592 192.396 407.264 192.971 406.806 193.468C404.116 197.122 399.879 199.734 395.87 202.38C386.683 208.578 377.887 215.185 369.52 222.174C369.152 222.539 368.657 222.795 368.108 222.907C367.588 222.919 367.076 222.795 366.642 222.552C359.423 219.324 353.034 214.9 347.851 209.539C347.461 209.138 346.977 208.68 346.345 208.715C345.963 208.774 345.612 208.93 345.336 209.161C341.717 211.681 337.763 214.694 333.122 214.305C339.135 210.628 342.538 204.488 343.802 198.268C344.052 196.139 344.566 194.039 345.336 192.002C345.734 190.983 346.421 190.064 347.336 189.324C348.251 188.585 349.366 188.049 350.582 187.764C347.649 191.578 349.653 196.985 353.595 200.066C357.424 202.834 362.014 204.73 366.938 205.576C371.511 206.309 372.856 201.899 374.484 198.898Z" fill="#323444"/>
<path id="Vector_21" d="M328.146 378.141C333.217 379.206 338.018 381.016 342.941 382.356C351.914 384.749 361.357 385.594 370.717 384.842C373.599 384.788 376.4 384.029 378.788 382.654C379.42 382.219 379.999 381.703 380.671 381.303C381.796 380.728 383.016 380.299 384.289 380.031C396.624 376.744 406.954 369.653 416.975 362.712C417.298 362.482 417.661 362.196 417.634 361.83C417.588 361.58 417.446 361.35 417.23 361.177L411.958 356.022C398.13 358.027 383.966 357.271 369.937 356.973C367.057 356.864 364.171 356.929 361.302 357.167C358.531 357.442 355.8 358.038 353.07 358.542C342.699 360.466 332.1 361.2 321.595 362.46C320.86 362.506 320.147 362.694 319.51 363.009C319.067 363.301 318.689 363.658 318.394 364.063L314.708 368.473C313.278 369.957 312.224 371.677 311.615 373.525C310.754 376.961 312.556 378.107 315.986 377.66C320.038 377.155 324.166 377.318 328.146 378.141Z" fill="#323444"/>
<path id="Vector_22" d="M369.372 216.928C365.258 213.337 360.593 210.235 355.505 207.707C353.449 206.595 351.168 205.818 348.779 205.416C347.577 205.214 346.338 205.238 345.148 205.487C343.958 205.737 342.847 206.205 341.892 206.859C340.695 207.764 339.942 209.024 338.785 209.975C337.329 211.016 335.661 211.82 333.862 212.346C327.739 214.574 321.936 217.391 316.564 220.742C313.637 222.486 310.999 224.559 308.723 226.905C302.629 233.548 301.715 242.586 301.876 251.017C301.997 256.882 308.602 261.234 313.148 265.622C317.412 269.939 321.271 274.535 324.689 279.367C327.137 282.666 329.693 286.24 329.383 290.169C329.128 293.388 326.922 296.412 327.271 299.619C327.392 300.765 327.823 301.818 327.944 302.929C328.186 305.22 327.123 307.511 326.854 309.802C326.491 313.044 327.729 316.263 327.796 319.527C327.747 321.762 327.413 323.986 326.801 326.16C324.218 336.629 320.976 347.156 321.635 357.843L314.184 358.989C314.89 359.578 315.423 360.3 315.74 361.098C316.057 361.895 316.149 362.744 316.009 363.578C315.869 364.411 315.5 365.204 314.933 365.893C314.366 366.583 313.616 367.149 312.744 367.545C324.379 370.856 336.956 369.183 349.29 369.172C359.499 369.172 369.668 370.317 379.864 370.157C390.06 369.997 400.578 368.427 408.985 363.513C411.272 362.185 413.37 360.627 415.778 359.47C419.003 358.047 422.478 357.079 426.068 356.606C432.717 355.526 439.475 355.012 446.244 355.071C449.553 355.071 453.158 355.186 455.794 353.49C458.699 351.612 459.439 348.21 459.829 345.129C460.219 341.875 460.461 338.611 460.529 335.346C460.641 332.804 460.484 330.258 460.058 327.74C459.654 325.899 459.129 324.079 458.484 322.288L453.413 307.076C451.315 300.799 454.234 293.915 454.852 287.408C455 285.873 455.027 284.087 453.642 283.101C453.144 282.746 452.458 282.506 452.297 281.956C452.224 281.695 452.215 281.424 452.271 281.16C452.327 280.896 452.445 280.644 452.619 280.421C455.31 275.839 459.345 271.796 463.03 267.66C469.221 260.407 474.967 252.887 480.247 245.129C478.594 228.896 470.567 213.611 457.462 201.739C454.772 199.253 451.691 196.87 447.925 195.748C445.464 195.108 442.912 194.757 440.339 194.706C429.793 194.098 418.818 193.56 409.631 189.047C408.971 188.658 408.225 188.389 407.438 188.257C405.407 188.062 403.928 189.769 402.609 191.12C399.22 194.557 394.229 196.527 389.844 199.058C381.666 203.789 375.277 210.295 369.372 216.928Z" fill="#5B5583"/>
<path id="Vector_23" d="M481.162 249.814C483.26 255.473 483.059 261.521 483.745 267.42C484.151 270.98 484.884 274.507 485.937 277.97C486.418 279.873 487.283 281.69 488.493 283.342C489.703 284.854 491.438 286.08 492.205 287.786C492.624 288.943 492.811 290.151 492.757 291.36L492.918 299.264C493.263 303.452 492.515 307.654 490.726 311.566L484.928 326.583C481.794 334.716 478.579 342.975 472.93 350.054C472.134 351.252 470.928 352.215 469.473 352.815C468.334 353.071 467.166 353.225 465.99 353.273C463.939 353.584 462.08 354.495 460.732 355.847C459.384 357.2 458.632 358.91 458.605 360.684C457.259 359.009 455.579 357.548 453.642 356.366L441.845 348.347C437.81 345.552 433.6 342.712 428.704 341.097C435.289 339.345 441.135 336.004 445.534 331.477C449.932 326.951 452.692 321.435 453.48 315.598C453.476 313.861 453.936 312.145 454.825 310.581C455.807 309.23 457.623 308.199 457.758 306.606C457.919 304.602 455.256 303.09 455.256 301.085C455.256 299.757 456.413 298.657 456.924 297.408C457.401 295.865 457.401 294.243 456.924 292.7L455.296 285.003C455.2 284.232 454.926 283.484 454.489 282.804C453.88 282.151 453.205 281.546 452.471 280.994C449.674 278.325 450.911 274.121 452.471 270.833C456.055 263.536 460.671 256.639 466.218 250.295C468.193 248.165 470.021 245.939 471.693 243.629C473.118 241.521 473.441 238.6 474.948 236.756C476.885 241.086 479.508 245.358 481.162 249.814Z" fill="#5B5583"/>
<path id="Vector_24" d="M428.287 341.566C427.687 341.946 427.168 342.411 426.753 342.941C425.169 344.635 423.058 345.917 420.66 346.641C422.005 347.465 423.229 348.279 424.494 349.115C433.849 355.267 442.415 362.244 450.05 369.928C450.898 367.351 455.969 367.534 457.206 365.071C457.498 364.366 457.59 363.613 457.475 362.872C457.218 359.013 456.57 355.181 455.538 351.417C455.131 349.48 454.211 347.646 452.848 346.056C450.965 344.121 448.033 343.193 445.235 342.391C440.998 341.131 432.591 339.355 428.287 341.566Z" fill="#323444"/>
<path id="Vector_25" d="M411.473 350.57C407.438 353.112 403.901 356.297 399.368 358.038C396.166 359.275 392.521 359.813 389.723 361.658C391.243 364.51 395.198 365.988 398.87 365.873C402.545 365.566 406.068 364.466 409.106 362.677C411.514 361.417 414.338 359.951 416.961 360.833C417.365 362.574 415.616 364.212 415.616 365.976C415.616 367.74 417.338 369.023 419.033 369.951C427.103 374.384 437.487 374.017 447.105 373.502C447.656 373.519 448.2 373.383 448.651 373.112C448.86 372.905 449.018 372.665 449.118 372.405C449.217 372.146 449.255 371.872 449.23 371.6C449.351 369.79 449.405 367.992 449.418 366.182C449.69 364.723 449.467 363.228 448.777 361.873C448.086 360.517 446.955 359.358 445.517 358.531C440.298 354.71 434.669 351.316 428.704 348.393C422.786 345.472 416.786 347.202 411.473 350.57Z" fill="#FBB3B2"/>
<path id="Vector_26" d="M377.187 136.218C371.215 136.825 366.871 140.8 367.476 145.118C368.081 149.437 373.408 152.415 379.38 151.796C385.352 151.178 389.696 147.214 389.091 142.907C388.486 138.6 383.159 135.611 377.187 136.218ZM379.218 150.605C374.161 151.12 369.655 148.589 369.13 144.946C368.606 141.304 372.305 137.936 377.349 137.421C382.393 136.905 386.912 139.437 387.437 143.079C387.961 146.722 384.262 150.09 379.218 150.605V150.605Z" fill="#3C354C"/>
<path id="Vector_27" d="M348.08 139.196C342.107 139.803 337.763 143.778 338.368 148.085C338.973 152.392 344.3 155.382 350.272 154.774C356.244 154.167 360.589 150.193 359.984 145.874C359.378 141.556 354.052 138.589 348.08 139.196ZM350.111 153.572C345.053 154.087 340.547 151.556 340.036 147.925C339.525 144.293 343.197 140.914 348.254 140.387C353.312 139.86 357.818 142.403 358.329 146.046C358.84 149.689 355.155 153.056 350.111 153.572Z" fill="#3C354C"/>
<path id="Vector_28" d="M326.464 141.407L339.444 143.766L338.166 146.676L325.926 143.618L326.464 141.407Z" fill="#3C354C"/>
<path id="Vector_29" d="M398.816 134.007L386.845 138.921L388.903 141.487L399.946 136.046L398.816 134.007Z" fill="#3C354C"/>
<path id="Vector_30" d="M358.787 143.033L367.893 142.106L367.422 144.03L359.607 144.477L358.787 143.033Z" fill="#3C354C"/>
<path id="Vector_31" d="M341.126 140.433C341.982 138.864 342.441 137.158 342.471 135.428C342.503 134.392 342.711 133.365 343.089 132.381C343.751 131.13 344.757 130.034 346.022 129.185C350.218 126.161 356.231 124.603 362.163 124.385C368.631 124.132 375.065 125.316 380.832 127.822C382.594 128.525 384.172 129.522 385.473 130.754C387.356 132.713 387.76 135.244 389.656 137.18C390.951 138.355 392.579 139.225 394.384 139.707C396.189 140.188 398.109 140.265 399.96 139.929C400.619 137.936 399.758 135.828 400.094 133.789C400.624 132.042 401.34 130.34 402.233 128.704C404.318 123.469 401.278 117.398 395.01 114.271C392.817 113.125 390.221 112.381 388.58 110.834C386.939 109.288 386.549 107.684 385.419 106.138C382.42 102.049 374.658 100.136 368.754 102.026C366.897 102.621 365.256 103.526 363.373 104.168C359.876 105.393 355.895 105.611 352.048 106.023C348.256 106.322 344.548 107.15 341.072 108.475C337.749 109.872 334.965 112.117 334.198 114.798C333.835 116.035 333.916 117.318 333.553 118.543C331.697 124.763 319.712 127.787 319.039 134.133C318.797 136.424 320.263 138.623 322.093 140.49C323.357 141.762 326.384 145.164 328.522 145.657C330.661 146.149 332.288 144.419 334.333 143.824C337.561 142.965 339.512 142.781 341.126 140.433Z" fill="#CBCEDA"/>
</g>
<path id="Vector_32" opacity="0.1" d="M477.013 656.677C482.91 656.677 487.691 655.465 487.691 653.971C487.691 652.476 482.91 651.265 477.013 651.265C471.116 651.265 466.335 652.476 466.335 653.971C466.335 655.465 471.116 656.677 477.013 656.677Z" fill="#C9DA69"/>
<path id="Vector_33" opacity="0.2" d="M489.988 652.618C483.114 652.7 474.014 651.009 472.18 649.336C470.784 648.065 470.229 643.484 470.041 641.382H469.839C469.839 641.382 470.223 648.75 472.058 650.423C473.892 652.097 482.992 653.788 489.867 653.706C491.853 653.706 492.536 652.618 492.499 651.054C492.225 652.005 491.5 652.599 489.988 652.618Z" fill="black"/>
<path id="Vector_34" d="M485 594C485 636.588 514.962 671 552 671Z" fill="#46455B"/>
<path id="Vector_35" d="M508 598C508 638.378 527.692 671 552 671Z" fill="#C9DA69"/>
<path id="Vector_36" opacity="0.1" d="M262.68 663.744C269.412 663.744 274.87 662.721 274.87 661.458C274.87 660.196 269.412 659.173 262.68 659.173C255.948 659.173 250.491 660.196 250.491 661.458C250.491 662.721 255.948 663.744 262.68 663.744Z" fill="#C9DA69"/>
<path id="Vector_37" opacity="0.2" d="M277.38 660.951C269.221 661.023 258.47 659.519 256.303 658.025C254.653 656.9 254 652.817 253.774 650.945H253.538C253.538 650.945 253.991 657.503 256.158 658.997C258.325 660.491 269.103 661.985 277.234 661.913C279.582 661.913 280.398 660.951 280.353 659.55C280.027 660.368 279.129 660.89 277.38 660.951Z" fill="black"/>
</g>
</svg>
